<?xml version="1.0" encoding="UTF-8" standalone="no"?>
<!-- Created with Inkscape (http://www.inkscape.org/) -->

<svg
   xmlns:dc="http://purl.org/dc/elements/1.1/"
   xmlns:cc="http://creativecommons.org/ns#"
   xmlns:rdf="http://www.w3.org/1999/02/22-rdf-syntax-ns#"
   xmlns:svg="http://www.w3.org/2000/svg"
   xmlns="http://www.w3.org/2000/svg"
   xmlns:xlink="http://www.w3.org/1999/xlink"
   xmlns:sodipodi="http://sodipodi.sourceforge.net/DTD/sodipodi-0.dtd"
   xmlns:inkscape="http://www.inkscape.org/namespaces/inkscape"
   width="113.24049"
   height="96.27314"
   viewBox="0 0 113.24049 96.273143"
   id="svg6749"
   version="1.1"
   inkscape:version="0.91 r13725"
   sodipodi:docname="hey there.svg">
  <defs
     id="defs6751">
    <clipPath
       id="clipPath16-2-0-8"
       clipPathUnits="userSpaceOnUse">
      <path
         inkscape:connector-curvature="0"
         id="path18-8-3-5"
         d="M 0,800 1200,800 1200,0 0,0 0,800 Z" />
    </clipPath>
    <linearGradient
       id="linearGradient44"
       spreadMethod="pad"
       gradientTransform="matrix(-65.809662,752.20673,752.20673,65.809677,622.19629,3.7304688)"
       gradientUnits="userSpaceOnUse"
       y2="0"
       x2="1"
       y1="0"
       x1="0">
      <stop
         id="stop46"
         offset="0"
         style="stop-opacity:1;stop-color:#f74c00" />
      <stop
         id="stop48"
         offset="0.331284"
         style="stop-opacity:1;stop-color:#f74c00" />
      <stop
         id="stop50"
         offset="0.42403707"
         style="stop-opacity:1;stop-color:#f74c00" />
      <stop
         id="stop52"
         offset="1"
         style="stop-opacity:1;stop-color:#f49600" />
    </linearGradient>
    <clipPath
       id="clipPath76-7-2-19"
       clipPathUnits="userSpaceOnUse">
      <path
         inkscape:connector-curvature="0"
         id="path78-5-3-9"
         d="m 966.093,302.98 c 0,0 -15.575,-62.041 -112.452,-127.238 l 0,0 -27.167,-6.367 c 0,0 -87.88,160.26 -212.382,-20.334 l 0,0 c 0,0 38.801,22.592 142.822,-4.92 l 0,0 c 0,0 -47.851,-73.238 -144.242,-70.988 l 0,0 c 0,0 92.373,-110.821 232.939,49.252 l 0,0 c 0,0 148.596,57.463 160.647,180.595 l 0,0 -40.165,0 z" />
    </clipPath>
    <linearGradient
       id="linearGradient84"
       spreadMethod="pad"
       gradientTransform="matrix(-1.53e-5,267.21094,267.21094,1.53e-5,809.46484,35.769531)"
       gradientUnits="userSpaceOnUse"
       y2="0"
       x2="1"
       y1="0"
       x1="0">
      <stop
         id="stop86"
         offset="0"
         style="stop-opacity:1;stop-color:#cc3a00" />
      <stop
         id="stop88"
         offset="0.147232"
         style="stop-opacity:1;stop-color:#cc3a00" />
      <stop
         id="stop90"
         offset="0.41840305"
         style="stop-opacity:1;stop-color:#f74c00" />
      <stop
         id="stop92"
         offset="0.742325"
         style="stop-opacity:1;stop-color:#f74c00" />
      <stop
         id="stop94"
         offset="1"
         style="stop-opacity:1;stop-color:#f74c00" />
    </linearGradient>
    <clipPath
       id="clipPath102-95-4-4"
       clipPathUnits="userSpaceOnUse">
      <path
         inkscape:connector-curvature="0"
         id="path104-3-3-4"
         d="M 0,800 1200,800 1200,0 0,0 0,800 Z" />
    </clipPath>
    <linearGradient
       id="linearGradient134"
       spreadMethod="pad"
       gradientTransform="matrix(-1.53e-5,239.02051,239.02051,1.53e-5,402.16162,24.612305)"
       gradientUnits="userSpaceOnUse"
       y2="0"
       x2="1"
       y1="0"
       x1="0">
      <stop
         id="stop136"
         offset="0"
         style="stop-opacity:1;stop-color:#cc3a00" />
      <stop
         id="stop138"
         offset="0.147232"
         style="stop-opacity:1;stop-color:#cc3a00" />
      <stop
         id="stop140"
         offset="0.41840305"
         style="stop-opacity:1;stop-color:#f74c00" />
      <stop
         id="stop142"
         offset="0.742325"
         style="stop-opacity:1;stop-color:#f74c00" />
      <stop
         id="stop144"
         offset="1"
         style="stop-opacity:1;stop-color:#f74c00" />
    </linearGradient>
    <clipPath
       clipPathUnits="userSpaceOnUse"
       id="clipPath16-2-4-0-1">
      <path
         d="M 0,800 1200,800 1200,0 0,0 0,800 Z"
         id="path18-8-5-1-6"
         inkscape:connector-curvature="0" />
    </clipPath>
    <clipPath
       clipPathUnits="userSpaceOnUse"
       id="clipPath76-7-1-4-8">
      <path
         d="m 966.093,302.98 c 0,0 -15.575,-62.041 -112.452,-127.238 l 0,0 -27.167,-6.367 c 0,0 -87.88,160.26 -212.382,-20.334 l 0,0 c 0,0 38.801,22.592 142.822,-4.92 l 0,0 c 0,0 -47.851,-73.238 -144.242,-70.988 l 0,0 c 0,0 92.373,-110.821 232.939,49.252 l 0,0 c 0,0 148.596,57.463 160.647,180.595 l 0,0 -40.165,0 z"
         id="path78-5-1-3-9"
         inkscape:connector-curvature="0" />
    </clipPath>
    <clipPath
       clipPathUnits="userSpaceOnUse"
       id="clipPath102-95-4-9-2-6">
      <path
         d="M 0,800 1200,800 1200,0 0,0 0,800 Z"
         id="path104-3-8-0-1"
         inkscape:connector-curvature="0" />
    </clipPath>
    <clipPath
       clipPathUnits="userSpaceOnUse"
       id="clipPath4288-5-2-5">
      <path
         d="M 0,800 1200,800 1200,0 0,0 0,800 Z"
         id="path4290-7-5-8"
         inkscape:connector-curvature="0" />
    </clipPath>
    <linearGradient
       x1="0"
       y1="0"
       x2="1"
       y2="0"
       gradientUnits="userSpaceOnUse"
       gradientTransform="matrix(-55.895172,638.88379,638.88379,55.895187,630.11719,68.164062)"
       spreadMethod="pad"
       id="linearGradient4312">
      <stop
         style="stop-opacity:1;stop-color:#f74c00"
         offset="0"
         id="stop4314" />
      <stop
         style="stop-opacity:1;stop-color:#f74c00"
         offset="0.331284"
         id="stop4316" />
      <stop
         style="stop-opacity:1;stop-color:#f74c00"
         offset="0.42403707"
         id="stop4318" />
      <stop
         style="stop-opacity:1;stop-color:#f49600"
         offset="1"
         id="stop4320" />
    </linearGradient>
    <linearGradient
       x1="0"
       y1="0"
       x2="1"
       y2="0"
       gradientUnits="userSpaceOnUse"
       gradientTransform="matrix(-1.53e-5,-312.61182,-312.61182,1.53e-5,1047.458,600.58789)"
       spreadMethod="pad"
       id="linearGradient4336">
      <stop
         style="stop-opacity:1;stop-color:#cc3a00"
         offset="0"
         id="stop4338" />
      <stop
         style="stop-opacity:1;stop-color:#cc3a00"
         offset="0.147232"
         id="stop4340" />
      <stop
         style="stop-opacity:1;stop-color:#f74c00"
         offset="0.41840305"
         id="stop4342" />
      <stop
         style="stop-opacity:1;stop-color:#f74c00"
         offset="0.742325"
         id="stop4344" />
      <stop
         style="stop-opacity:1;stop-color:#f74c00"
         offset="1"
         id="stop4346" />
    </linearGradient>
    <linearGradient
       x1="0"
       y1="0"
       x2="1"
       y2="0"
       gradientUnits="userSpaceOnUse"
       gradientTransform="matrix(-1.53e-5,-291.82178,-291.82178,1.53e-5,153.95361,579.7627)"
       spreadMethod="pad"
       id="linearGradient4390">
      <stop
         style="stop-opacity:1;stop-color:#cc3a00"
         offset="0"
         id="stop4392" />
      <stop
         style="stop-opacity:1;stop-color:#cc3a00"
         offset="0.147232"
         id="stop4394" />
      <stop
         style="stop-opacity:1;stop-color:#f74c00"
         offset="0.41840305"
         id="stop4396" />
      <stop
         style="stop-opacity:1;stop-color:#f74c00"
         offset="0.742325"
         id="stop4398" />
      <stop
         style="stop-opacity:1;stop-color:#f74c00"
         offset="1"
         id="stop4400" />
    </linearGradient>
    <clipPath
       id="clipPath16-3-2-8"
       clipPathUnits="userSpaceOnUse">
      <path
         inkscape:connector-curvature="0"
         id="path18-4-9-0"
         d="M 0,800 1200,800 1200,0 0,0 0,800 Z" />
    </clipPath>
    <clipPath
       id="clipPath36-7-9-7"
       clipPathUnits="userSpaceOnUse">
      <path
         inkscape:connector-curvature="0"
         id="path38-9-7-6"
         d="m 581.736,751.631 -27.734,-46.712 c -4.358,-0.376 -8.722,-0.832 -13.055,-1.331 l 0,0 -35.91,40.171 c -3.636,4.059 -9.048,5.874 -14.269,4.802 l 0,0 c -5.254,-1.092 -9.573,-4.922 -11.432,-10.152 l 0,0 -18.403,-51.316 c -4.26,-1.278 -8.481,-2.627 -12.691,-4.01 l 0,0 -42.644,32.007 c -4.336,3.266 -9.98,3.954 -14.915,1.808 l 0,0 c -4.92,-2.128 -8.461,-6.784 -9.314,-12.266 l 0,0 -8.46,-54.115 c -3.915,-2.117 -7.79,-4.294 -11.654,-6.517 l 0,0 -47.842,22.747 c -4.858,2.316 -10.529,1.838 -14.953,-1.266 l 0,0 c -4.445,-3.084 -7.043,-8.367 -6.841,-13.925 l 0,0 1.836,-54.915 c -3.406,-2.839 -6.774,-5.738 -10.113,-8.672 l 0,0 -51.279,12.608 c -5.21,1.265 -10.669,-0.351 -14.44,-4.283 l 0,0 c -3.796,-3.945 -5.332,-9.632 -4.113,-15.064 l 0,0 12.079,-53.491 c -2.802,-3.467 -5.575,-6.97 -8.294,-10.521 l 0,0 -52.654,1.914 c -5.315,0.157 -10.386,-2.498 -13.356,-7.134 l 0,0 c -2.975,-4.612 -3.425,-10.521 -1.211,-15.607 l 0,0 21.813,-49.903 c -2.119,-4.008 -4.223,-8.049 -6.248,-12.151 l 0,0 -51.883,-8.803 c -5.271,-0.889 -9.714,-4.568 -11.764,-9.711 l 0,0 c -2.037,-5.157 -1.376,-11.033 1.735,-15.555 l 0,0 30.69,-44.451 c -0.237,-0.784 -0.455,-1.577 -0.69,-2.364 l 0,0 -86.771,-92.17 c 0,0 -13.297,-10.423 6.063,-34.916 l 0,0 C 70.088,204.762 157.745,119.115 204.039,74.244 l 0,0 c 19.554,-22.779 32.948,-36.887 34.349,-35.665 l 0,0 c 2.208,1.939 -9.386,43.384 -47.901,92.011 l 0,0 c -29.686,43.628 -68.214,110.732 -59.18,118.467 l 0,0 c 0,0 10.274,13.041 30.888,22.431 l 0,0 c 0,10e-4 -0.001,0.002 -0.002,0.002 l 0,0 c -0.191,0.15 -0.378,0.3 0.011,0.002 l 0,0 c 0,0 435.152,-200.732 838.798,-3.396 l 0,0 c 46.107,8.273 74.023,-16.43 74.023,-16.43 l 0,0 c 9.627,-5.58 -15.301,-74.578 -35.799,-120.254 l 0,0 C 1011.345,79.549 1007.257,39.08 1009.622,37.676 l 0,0 c 1.491,-0.888 11.635,14.545 26.104,39.109 l 0,0 c 35.702,49.748 103.192,144.586 115.546,167.619 l 0,0 c 14.006,26.12 0,33.44 0,33.44 l 0,0 -93.416,68.81 c -0.88,3.064 -1.756,6.127 -2.662,9.163 l 0,0 30.684,44.451 c 3.13,4.522 3.765,10.398 1.731,15.555 l 0,0 c -2.038,5.129 -6.492,8.81 -11.763,9.711 l 0,0 -51.885,8.803 c -2.008,4.102 -4.115,8.143 -6.229,12.151 l 0,0 21.796,49.903 c 2.244,5.086 1.77,10.995 -1.203,15.607 l 0,0 c -2.96,4.636 -7.989,7.344 -13.348,7.134 l 0,0 -52.657,-1.914 c -2.727,3.551 -5.496,7.069 -8.321,10.521 l 0,0 12.1,53.491 c 1.225,5.432 -0.322,11.119 -4.103,15.064 l 0,0 c -3.762,3.932 -9.228,5.559 -14.426,4.283 l 0,0 -51.289,-12.608 c -3.32,2.934 -6.698,5.833 -10.113,8.672 l 0,0 1.848,54.915 c 0.198,5.558 -2.394,10.841 -6.844,13.925 l 0,0 c -4.446,3.104 -10.094,3.573 -14.956,1.266 l 0,0 L 828.368,644 c -3.854,2.21 -7.727,4.4 -11.643,6.517 l 0,0 -8.456,54.115 c -0.857,5.482 -4.385,10.138 -9.326,12.266 l 0,0 c -4.922,2.137 -10.567,1.447 -14.89,-1.808 l 0,0 -42.659,-32.007 c -4.2,1.395 -8.42,2.732 -12.693,4.01 l 0,0 -18.386,51.316 c -1.87,5.23 -6.18,9.072 -11.437,10.152 l 0,0 c -5.239,1.072 -10.631,-0.743 -14.264,-4.802 l 0,0 -35.906,-40.171 c -4.343,0.499 -8.686,0.955 -13.043,1.331 l 0,0 -27.724,46.712 c -2.809,4.733 -7.77,7.613 -13.116,7.613 l 0,0 c -5.334,0 -10.304,-2.88 -13.089,-7.613 M 162.195,271.488 c 0.192,-0.149 0.385,-0.297 0.009,0.004 l 0,0 c -0.002,-0.001 -0.006,-0.003 -0.009,-0.004" />
    </clipPath>
    <clipPath
       id="clipPath76-5-3-3"
       clipPathUnits="userSpaceOnUse">
      <path
         inkscape:connector-curvature="0"
         id="path78-2-2-8"
         d="m 966.093,302.98 c 0,0 -15.575,-62.041 -112.452,-127.238 l 0,0 -27.167,-6.367 c 0,0 -87.88,160.26 -212.382,-20.334 l 0,0 c 0,0 38.801,22.592 142.822,-4.92 l 0,0 c 0,0 -47.851,-73.238 -144.242,-70.988 l 0,0 c 0,0 92.373,-110.821 232.939,49.252 l 0,0 c 0,0 148.596,57.463 160.647,180.595 l 0,0 -40.165,0 z" />
    </clipPath>
    <clipPath
       id="clipPath102-9-5-1"
       clipPathUnits="userSpaceOnUse">
      <path
         inkscape:connector-curvature="0"
         id="path104-6-2-7"
         d="M 0,800 1200,800 1200,0 0,0 0,800 Z" />
    </clipPath>
    <clipPath
       clipPathUnits="userSpaceOnUse"
       id="clipPath4473-47-7-9">
      <path
         d="M 0,800 1200,800 1200,0 0,0 0,800 Z"
         id="path4475-9-70-8"
         inkscape:connector-curvature="0" />
    </clipPath>
    <linearGradient
       y2="0"
       x2="1"
       y1="0"
       x1="0"
       spreadMethod="pad"
       gradientTransform="matrix(-62.204361,710.99792,710.99792,62.204361,677.77539,36.518555)"
       gradientUnits="userSpaceOnUse"
       id="linearGradient5294-7"
       xlink:href="#linearGradient4505"
       inkscape:collect="always" />
    <linearGradient
       x1="0"
       y1="0"
       x2="1"
       y2="0"
       gradientUnits="userSpaceOnUse"
       gradientTransform="matrix(-62.204361,710.99792,710.99792,62.204361,677.77539,36.518555)"
       spreadMethod="pad"
       id="linearGradient4505">
      <stop
         style="stop-opacity:1;stop-color:#f74c00"
         offset="0"
         id="stop4507" />
      <stop
         style="stop-opacity:1;stop-color:#f74c00"
         offset="0.331284"
         id="stop4509" />
      <stop
         style="stop-opacity:1;stop-color:#f74c00"
         offset="0.42403707"
         id="stop4511" />
      <stop
         style="stop-opacity:1;stop-color:#f49600"
         offset="1"
         id="stop4513" />
    </linearGradient>
    <clipPath
       clipPathUnits="userSpaceOnUse"
       id="clipPath4521-4-2-0">
      <path
         d="M 0,800 1200,800 1200,0 0,0 0,800 Z"
         id="path4523-9-8-0"
         inkscape:connector-curvature="0" />
    </clipPath>
    <linearGradient
       y2="0"
       x2="1"
       y1="0"
       x1="0"
       spreadMethod="pad"
       gradientTransform="matrix(-1.53e-5,252.57129,252.57129,1.53e-5,854.18555,65.557617)"
       gradientUnits="userSpaceOnUse"
       id="linearGradient5296-8"
       xlink:href="#linearGradient4557"
       inkscape:collect="always" />
    <linearGradient
       x1="0"
       y1="0"
       x2="1"
       y2="0"
       gradientUnits="userSpaceOnUse"
       gradientTransform="matrix(-1.53e-5,252.57129,252.57129,1.53e-5,854.18555,65.557617)"
       spreadMethod="pad"
       id="linearGradient4557">
      <stop
         style="stop-opacity:1;stop-color:#cc3a00"
         offset="0"
         id="stop4559" />
      <stop
         style="stop-opacity:1;stop-color:#cc3a00"
         offset="0.147232"
         id="stop4561" />
      <stop
         style="stop-opacity:1;stop-color:#f74c00"
         offset="0.41840305"
         id="stop4563" />
      <stop
         style="stop-opacity:1;stop-color:#f74c00"
         offset="0.742325"
         id="stop4565" />
      <stop
         style="stop-opacity:1;stop-color:#f74c00"
         offset="1"
         id="stop4567" />
    </linearGradient>
    <linearGradient
       y2="0"
       x2="1"
       y1="0"
       x1="0"
       spreadMethod="pad"
       gradientTransform="matrix(-27.384155,-345.42599,-345.42599,27.384155,180.93311,641.71631)"
       gradientUnits="userSpaceOnUse"
       id="linearGradient5298-4"
       xlink:href="#linearGradient4583"
       inkscape:collect="always" />
    <linearGradient
       x1="0"
       y1="0"
       x2="1"
       y2="0"
       gradientUnits="userSpaceOnUse"
       gradientTransform="matrix(-27.384155,-345.42599,-345.42599,27.384155,180.93311,641.71631)"
       spreadMethod="pad"
       id="linearGradient4583">
      <stop
         style="stop-opacity:1;stop-color:#cc3a00"
         offset="0"
         id="stop4585" />
      <stop
         style="stop-opacity:1;stop-color:#cc3a00"
         offset="0.147232"
         id="stop4587" />
      <stop
         style="stop-opacity:1;stop-color:#f74c00"
         offset="0.41840305"
         id="stop4589" />
      <stop
         style="stop-opacity:1;stop-color:#f74c00"
         offset="0.742325"
         id="stop4591" />
      <stop
         style="stop-opacity:1;stop-color:#f74c00"
         offset="1"
         id="stop4593" />
    </linearGradient>
    <clipPath
       clipPathUnits="userSpaceOnUse"
       id="clipPath4288-5-5-5">
      <path
         d="M 0,800 1200,800 1200,0 0,0 0,800 Z"
         id="path4290-7-3-5"
         inkscape:connector-curvature="0" />
    </clipPath>
    <clipPath
       clipPathUnits="userSpaceOnUse"
       id="clipPath4354-3-3-4">
      <path
         d="M 0,800 1200,800 1200,0 0,0 0,800 Z"
         id="path4356-4-3-8"
         inkscape:connector-curvature="0" />
    </clipPath>
    <clipPath
       clipPathUnits="userSpaceOnUse"
       id="clipPath4473-47-1-1-5">
      <path
         d="M 0,800 1200,800 1200,0 0,0 0,800 Z"
         id="path4475-9-7-9-8"
         inkscape:connector-curvature="0" />
    </clipPath>
    <clipPath
       clipPathUnits="userSpaceOnUse"
       id="clipPath4521-4-4-4-3">
      <path
         d="M 0,800 1200,800 1200,0 0,0 0,800 Z"
         id="path4523-9-4-3-7"
         inkscape:connector-curvature="0" />
    </clipPath>
  </defs>
  <sodipodi:namedview
     id="base"
     pagecolor="#ffffff"
     bordercolor="#666666"
     borderopacity="1.0"
     inkscape:pageopacity="0.0"
     inkscape:pageshadow="2"
     inkscape:zoom="1.4"
     inkscape:cx="105.81689"
     inkscape:cy="106.84663"
     inkscape:document-units="px"
     inkscape:current-layer="layer1"
     showgrid="false"
     fit-margin-top="15"
     fit-margin-left="15"
     fit-margin-right="15"
     fit-margin-bottom="15"
     inkscape:window-width="1366"
     inkscape:window-height="719"
     inkscape:window-x="0"
     inkscape:window-y="0"
     inkscape:window-maximized="1"
     units="px" />
  <metadata
     id="metadata6754">
    <rdf:RDF>
      <cc:Work
         rdf:about="">
        <dc:format>image/svg+xml</dc:format>
        <dc:type
           rdf:resource="http://purl.org/dc/dcmitype/StillImage" />
        <dc:title></dc:title>
      </cc:Work>
    </rdf:RDF>
  </metadata>
  <g
     inkscape:label="Layer 1"
     inkscape:groupmode="layer"
     id="layer1"
     transform="translate(92.286652,-875.00455)">
    <g
       style="display:inline"
       id="g9423"
       transform="matrix(0.99574677,0.09213237,-0.09213237,0.99574677,249.81911,505.94313)"
       inkscape:export-filename="/home/hendrik/code/rust/c3d2/ta-rust/hello.svg"
       inkscape:export-xdpi="90"
       inkscape:export-ydpi="90">
      <g
         transform="matrix(0.07973145,0,0,-0.07973145,-293.41822,472.53367)"
         id="g4469-2-0">
        <g
           clip-path="url(#clipPath4473-47-1-1-5)"
           id="g4471-2-4">
          <g
             transform="translate(654.2871,454.2886)"
             id="g4477-6-9">
            <path
               inkscape:connector-curvature="0"
               id="path4479-6-6"
               style="fill:#a52b00;fill-opacity:1;fill-rule:nonzero;stroke:none"
               d="m 0,0 c -114.597,0 -218.714,-13.779 -295.795,-36.229 l 0,-191.786 c 77.081,-22.453 181.198,-36.229 295.795,-36.229 131.157,0 248.579,18.046 327.452,46.492 l 0,171.257 C 248.579,-18.048 131.157,0 0,0" />
          </g>
          <g
             transform="translate(337.4038,132.5488)"
             id="g4481-0-8" />
          <g
             transform="translate(1099.8682,295.459)"
             id="g4485-9-1">
            <path
               inkscape:connector-curvature="0"
               id="path4487-3-0"
               style="fill:#a52b00;fill-opacity:1;fill-rule:nonzero;stroke:none"
               d="m 0,0 -13.433,27.828 c 0.071,1.056 0.124,2.114 0.124,3.175 0,31.548 -32.805,60.62 -87.997,83.901 l 0,-167.801 c 25.751,10.863 46.645,22.983 61.586,36.036 -4.398,-17.683 -19.437,-53.455 -31.428,-78.611 -19.707,-35.981 -26.845,-67.303 -25.929,-68.853 0.584,-0.978 7.307,9.393 17.222,26.2 23.072,32.876 66.792,95.64 75.53,111.627 C 5.574,-8.375 0,0 0,0" />
          </g>
          <g
             transform="translate(230.5645,324.625)"
             id="g4489-4-9">
            <path
               inkscape:connector-curvature="0"
               id="path4491-4-3"
               style="fill:#a52b00;fill-opacity:1;fill-rule:nonzero;stroke:none"
               d="m 0,0 c 0,-6.077 1.222,-12.063 3.581,-17.932 l -8.046,-14.32 c 0,0 -6.444,-8.359 4.904,-25.999 10.01,-15.555 60.149,-76.438 86.612,-108.32 11.368,-16.348 19.076,-26.413 19.75,-25.441 1.061,1.543 -7.068,32.23 -29.642,67.242 -10.534,18.805 -23.114,43.719 -30.665,62.121 21.082,-13.342 48.662,-25.446 81.434,-35.862 l 0,197.016 C 48.96,73.411 0,38.547 0,0" />
          </g>
        </g>
      </g>
      <g
         transform="matrix(0.07973145,0,0,-0.07973145,-293.41822,472.53367)"
         id="g4493-8-0">
        <g
           id="g4495-3-5">
          <g
             id="g4501-0-9">
            <g
               id="g4503-8-4">
              <path
                 inkscape:connector-curvature="0"
                 id="path4515-9-5"
                 style="fill:url(#linearGradient5294-7);stroke:none"
                 d="m 639.533,743.449 -26.214,-44.154 c -4.119,-0.358 -8.244,-0.788 -12.34,-1.259 l 0,0 -33.943,37.97 c -3.437,3.838 -8.552,5.552 -13.487,4.54 l 0,0 c -4.967,-1.035 -9.046,-4.652 -10.807,-9.597 l 0,0 -17.392,-48.504 c -4.028,-1.209 -8.018,-2.482 -11.997,-3.792 l 0,0 -40.309,30.254 c -4.098,3.088 -9.432,3.74 -14.098,1.71 l 0,0 c -4.65,-2.011 -7.997,-6.414 -8.803,-11.594 l 0,0 -7.996,-51.149 c -3.7,-2.003 -7.364,-4.062 -11.015,-6.163 l 0,0 -45.222,21.502 c -4.592,2.188 -9.952,1.738 -14.134,-1.196 l 0,0 c -4.202,-2.915 -6.657,-7.909 -6.466,-13.163 l 0,0 1.735,-51.906 c -3.218,-2.684 -6.403,-5.422 -9.558,-8.197 l 0,0 -48.47,11.92 c -4.925,1.194 -10.086,-0.335 -13.65,-4.051 l 0,0 c -3.585,-3.73 -5.039,-9.105 -3.885,-14.238 l 0,0 11.415,-50.56 c -2.649,-3.279 -5.27,-6.589 -7.839,-9.945 l 0,0 -49.77,1.808 c -5.023,0.148 -9.817,-2.36 -12.624,-6.743 l 0,0 c -2.811,-4.361 -3.237,-9.944 -1.145,-14.751 l 0,0 20.619,-47.172 c -2.004,-3.786 -3.993,-7.605 -5.907,-11.484 l 0,0 -49.039,-8.321 c -4.983,-0.841 -9.184,-4.317 -11.121,-9.179 l 0,0 c -1.925,-4.874 -1.3,-10.428 1.639,-14.703 l 0,0 29.01,-42.015 c -0.224,-0.742 -0.43,-1.491 -0.652,-2.234 l 0,0 -82.018,-87.122 c 0,0 -12.569,-9.85 5.731,-33.002 l 0,0 C 155.914,226.538 238.769,145.583 282.528,103.17 l 0,0 c 18.483,-21.531 31.144,-34.865 32.467,-33.712 l 0,0 c 2.088,1.832 -8.872,41.006 -45.277,86.97 l 0,0 c -28.059,41.239 -64.478,104.666 -55.937,111.977 l 0,0 c 0,0 9.71,12.328 29.195,21.203 l 0,0 c 0,10e-4 -0.001,10e-4 -0.002,0.002 l 0,0 c -0.181,0.142 -0.358,0.284 0.011,0.002 l 0,0 c 0,0 411.313,-189.736 792.845,-3.21 l 0,0 c 43.584,7.818 69.968,-15.529 69.968,-15.529 l 0,0 c 9.099,-5.276 -14.463,-70.495 -33.838,-113.666 l 0,0 c -26.353,-49.022 -30.217,-87.275 -27.982,-88.602 l 0,0 c 1.41,-0.841 10.998,13.748 24.674,36.966 l 0,0 c 33.745,47.024 97.539,136.665 109.214,158.438 l 0,0 c 13.239,24.688 0,31.606 0,31.606 l 0,0 -88.295,65.043 c -0.831,2.894 -1.661,5.787 -2.516,8.659 l 0,0 29.002,42.015 c 2.961,4.275 3.557,9.829 1.634,14.703 l 0,0 c -1.924,4.85 -6.135,8.327 -11.117,9.179 l 0,0 -49.043,8.321 c -1.899,3.879 -3.889,7.698 -5.888,11.484 l 0,0 20.603,47.172 c 2.119,4.807 1.673,10.39 -1.139,14.751 l 0,0 c -2.796,4.383 -7.55,6.943 -12.617,6.743 l 0,0 -49.769,-1.808 c -2.578,3.356 -5.195,6.679 -7.866,9.945 l 0,0 11.437,50.56 c 1.159,5.133 -0.301,10.508 -3.879,14.238 l 0,0 c -3.555,3.716 -8.722,5.254 -13.636,4.051 l 0,0 -48.478,-11.92 c -3.14,2.775 -6.33,5.513 -9.559,8.197 l 0,0 1.745,51.906 c 0.188,5.254 -2.262,10.248 -6.467,13.163 l 0,0 c -4.204,2.934 -9.541,3.376 -14.14,1.196 l 0,0 -45.224,-21.502 c -3.64,2.091 -7.302,4.16 -11.006,6.163 l 0,0 -7.991,51.149 c -0.812,5.18 -4.145,9.583 -8.815,11.594 l 0,0 c -4.654,2.021 -9.989,1.366 -14.076,-1.71 l 0,0 -40.322,-30.254 c -3.969,1.319 -7.958,2.583 -11.996,3.792 l 0,0 -17.38,48.504 c -1.766,4.945 -5.841,8.576 -10.81,9.597 l 0,0 c -4.953,1.012 -10.049,-0.702 -13.483,-4.54 l 0,0 -33.938,-37.97 c -4.104,0.471 -8.21,0.901 -12.327,1.259 l 0,0 -26.207,44.154 c -2.656,4.472 -7.345,7.193 -12.398,7.193 l 0,0 c -5.041,0 -9.739,-2.721 -12.372,-7.193 M 242.976,289.608 c 0.181,-0.141 0.363,-0.281 0.009,0.004 l 0,0 c -0.003,-0.001 -0.006,-0.003 -0.009,-0.004" />
            </g>
          </g>
        </g>
      </g>
      <path
         sodipodi:nodetypes="ccc"
         d="m -234.83734,448.50425 c -3.59362,8.82944 -7.55317,8.04971 -9.0223,-2.41752 6.20799,1.43415 3.11124,0.26134 9.0223,2.41752 z"
         style="fill:#280b0b;fill-opacity:1;fill-rule:nonzero;stroke:none"
         id="path4527-3-2-5"
         inkscape:connector-curvature="0" />
      <g
         transform="matrix(0.07973145,0,0,-0.07973145,-293.41822,472.53367)"
         id="g4517-4-1">
        <g
           clip-path="url(#clipPath4521-4-4-4-3)"
           id="g4519-2-9">
          <g
             transform="translate(795.8564,175.4316)"
             id="g4525-0-7">
            <path
               inkscape:connector-curvature="0"
               id="path4527-3-2"
               style="fill:#000000;fill-opacity:1;fill-rule:nonzero;stroke:none"
               d="M 0,0 C 1.575,1.342 2.4,2.139 2.4,2.139 L -134.564,14.613 C -24.662,159.599 65.618,42.664 74.988,29.752 L 74.988,0 0,0 Z" />
          </g>
          <g
             transform="translate(729.9482,394.4932)"
             id="g4529-1-4">
            <path
               inkscape:connector-curvature="0"
               id="path4531-2-1"
               style="fill:#000000;fill-opacity:1;fill-rule:nonzero;stroke:none"
               d="m 0,42.217357 c 0,0 41.104,45.009 82.21,0 0,0 32.297,-60.013 0,-90.016 0,0 -52.85,-42.009 -82.21,0 0,0 -35.232,33.006 0,90.016" />
          </g>
          <g
             transform="translate(777.5361,377.7959)"
             id="g4533-6-0">
            <path
               inkscape:connector-curvature="0"
               id="path4535-6-1"
               style="fill:#ffffff;fill-opacity:1;fill-rule:nonzero;stroke:none"
               d="m 0,42.217357 c 0,-17.523 -10.329,-31.73 -23.07,-31.73 -12.739,0 -23.069,14.207 -23.069,31.73 0,17.529 10.33,31.738 23.069,31.738 12.741,0 23.07,-14.209 23.07,-31.738" />
          </g>
          <g
             transform="translate(546.4902,406.7832)"
             id="g4537-6-9">
            <path
               inkscape:connector-curvature="0"
               id="path4539-9-5"
               style="fill:#000000;fill-opacity:1;fill-rule:nonzero;stroke:none"
               d="m 0,64.905013 c 0,0 70.508,31.219 89.753,-38.463 0,0 20.159,-81.218 -57.902,-85.802 0,0 -99.541,19.172 -31.851,124.265" />
          </g>
          <g
             transform="translate(581.9033,376.6465)"
             id="g4541-3-4">
            <path
               inkscape:connector-curvature="0"
               id="path4543-4-5"
               style="fill:#ffffff;fill-opacity:1;fill-rule:nonzero;stroke:none"
               d="m 0,64.905013 c 0,-18.072 -10.653,-32.729 -23.794,-32.729 -13.137,0 -23.792,14.657 -23.792,32.729 0,18.078 10.655,32.731 23.792,32.731 13.141,0 23.794,-14.653 23.794,-32.731" />
          </g>
        </g>
      </g>
      <g
         transform="matrix(0.07973145,0,0,-0.07973145,-293.41822,472.53367)"
         id="g4545-6-4">
        <g
           id="g4547-1-9">
          <g
             id="g4553-2-5">
            <g
               id="g4555-3-6">
              <path
                 inkscape:connector-curvature="0"
                 id="path4569-9-2"
                 style="fill:url(#linearGradient5296-8);stroke:none"
                 d="m 1002.235,318.129 c 0,0 -14.724,-58.643 -106.292,-120.267 l 0,0 -25.678,-6.018 c 0,0 -83.067,151.481 -200.75,-19.221 l 0,0 c 0,0 36.677,21.354 135,-4.651 l 0,0 c 0,0 -45.23,-69.225 -136.342,-67.098 l 0,0 c 0,0 87.313,-104.749 220.18,46.554 l 0,0 c 0,0 140.456,54.315 151.845,170.701 l 0,0 -37.963,0 z" />
            </g>
          </g>
        </g>
      </g>
      <g
         transform="matrix(0.07973145,0,0,-0.07973145,-293.41822,472.53367)"
         id="g4571-4-5">
        <g
           id="g4573-5-0">
          <g
             id="g4579-5-1">
            <g
               id="g4581-2-3">
              <path
                 inkscape:connector-curvature="0"
                 id="path4595-7-0"
                 style="fill:url(#linearGradient5298-4);stroke:none"
                 d="m 117.845,497.971 c 0,0 -53.591,42.303 -59.292,125.418 l 0,0 c 0,0 -145.739,-89.09 45.294,-200.695 l 0,0 c 0,0 12.65,-69.12 181.341,-136.839 l 0,0 0.167,0.502 c 1.716,-0.46 3.484,-0.792 5.317,-0.937 l 0,0 c 16.345,-1.295 30.658,11.042 31.968,27.568 l 0,0 c 1.31,16.52 -10.881,30.959 -27.226,32.254 l 0,0 c -0.788,0.063 -1.568,0.065 -2.344,0.067 l 0,0 c -30.493,9.529 -115.975,39.194 -136.12,77.925 l 0,0 c 0,0 128.046,124.295 -48.759,224.25 l 0,0 9.654,-149.513 z" />
            </g>
          </g>
        </g>
      </g>
    </g>
  </g>
</svg>
